<svg width="64" height="64" viewBox="0 0 64 64" fill="none" xmlns="http://www.w3.org/2000/svg">
<g id="Logo webfolio">
<rect id="Rectangle 4" width="64" height="64" fill="#E95D35"/>
<g id="Group 3">
<path id="LA" d="M11.9078 53.0604C11.1931 52.9016 10.7167 52.5443 10.4785 51.9884C10.4388 51.8693 10.399 51.7304 10.3593 51.5715C10.3196 51.373 10.2799 51.0951 10.2402 50.7378C10.2402 50.3407 10.2402 49.8246 10.2402 49.1893C10.2402 48.5541 10.2402 47.7203 10.2402 46.688C10.2799 43.6308 10.2998 40.5339 10.2998 37.3973C10.3395 34.221 10.3593 31.2631 10.3593 28.5235C10.399 25.7443 10.4189 23.3025 10.4189 21.1982C10.4189 19.0542 10.4189 17.4859 10.4189 16.4933L10.4785 11.9075L10.6571 11.4907C10.9748 10.8157 11.4512 10.4187 12.0865 10.2995C12.2056 10.2995 12.6026 10.2995 13.2776 10.2995C13.9525 10.2598 14.8657 10.24 16.0171 10.24C17.1685 10.24 18.0817 10.2598 18.7567 10.2995C19.4713 10.2995 19.8684 10.2995 19.9478 10.2995C20.5433 10.4187 21.0198 10.8157 21.3771 11.4907L21.5558 11.9075L21.6153 16.4933C21.6153 17.4859 21.6153 18.9748 21.6153 20.96C21.655 22.9055 21.6749 25.2083 21.6749 27.8684C21.7146 30.5286 21.7345 33.4468 21.7345 36.6231C21.7742 39.7994 21.794 43.075 21.794 46.4498V49.7849H49.4278C50.341 49.7849 51.0556 49.7849 51.5718 49.7849C52.0879 49.7849 52.4651 49.8047 52.7034 49.8444C52.9813 49.8444 53.1599 49.8643 53.2393 49.904C53.3188 49.9437 53.418 50.0033 53.5371 50.0827C53.8945 50.2812 54.1128 50.5988 54.1922 51.0355C54.3114 51.4326 54.2716 51.8296 54.0731 52.2267C53.8746 52.5443 53.6165 52.7825 53.2989 52.9413L53.0011 53.0604H48.7131C47.4029 53.0604 45.5964 53.0604 43.2936 53.0604C40.9908 53.1001 38.4696 53.12 35.73 53.12C33.0302 53.12 30.2708 53.12 27.4518 53.12C24.6725 53.12 22.1315 53.12 19.8287 53.12C17.5656 53.12 15.6796 53.1001 14.1709 53.0604C12.7019 53.0604 11.9475 53.0604 11.9078 53.0604Z" fill="#FFC55C"/>
<path id="LA_2" d="M28.6766 28.303C28.756 27.9853 28.8553 27.5684 28.9744 27.0523C29.1332 26.5361 29.292 26.0597 29.4509 25.623C29.57 25.1465 29.7089 24.6105 29.8677 24.015C30.0663 23.3797 30.2251 22.8437 30.3442 22.407C30.4633 21.8908 30.5626 21.4739 30.642 21.1563C30.7611 20.799 30.8405 20.5012 30.8802 20.263C30.9596 19.985 31.039 19.7071 31.1184 19.4292C31.2375 19.1116 31.3566 18.7145 31.4757 18.2381C31.6346 17.8013 31.7934 17.2455 31.9522 16.5705C32.1507 15.8956 32.3294 15.2801 32.4882 14.7243C33.0837 12.6994 33.4212 11.5877 33.5006 11.3892C33.7389 10.873 34.1756 10.5951 34.8108 10.5554C34.9697 10.5554 35.3866 10.5554 36.0615 10.5554C36.7762 10.5554 37.5504 10.5554 38.3842 10.5554C39.2577 10.5157 40.0914 10.4958 40.8855 10.4958C41.6796 10.4958 42.2553 10.4958 42.6126 10.4958C43.5258 10.4958 44.1214 10.5157 44.3993 10.5554C44.7169 10.5951 44.975 10.7142 45.1735 10.9127C45.3323 11.0318 45.4316 11.151 45.4713 11.2701C45.5507 11.3892 45.65 11.5877 45.7691 11.8656C45.8485 12.1833 45.9279 12.5604 46.0073 12.9972C46.1264 13.4339 46.2852 13.9898 46.4837 14.6647C46.5631 14.9824 46.6426 15.3993 46.722 15.9154C46.8411 16.4316 46.9403 16.8683 47.0197 17.2256C47.3374 18.7344 47.655 20.263 47.9726 21.8114C48.33 23.3598 48.6079 24.6502 48.8064 25.6825C49.0446 26.8339 49.3027 28.0647 49.5806 29.375C49.8586 30.6455 50.1365 31.916 50.4144 33.1865C50.6923 34.4173 50.9504 35.5886 51.1886 36.7003C51.4666 37.812 51.7048 38.7252 51.9033 39.4398C52.1415 40.3133 52.3599 41.1868 52.5584 42.0603C52.7966 42.9338 52.9753 43.6087 53.0944 44.0852C53.2532 44.641 53.3326 45.0381 53.3326 45.2763C53.3326 45.5145 53.2731 45.7329 53.154 45.9314C53.0349 46.3284 52.6974 46.6262 52.1415 46.8247C52.1415 46.8247 51.9629 46.8446 51.6055 46.8843C51.2879 46.8843 50.8909 46.8843 50.4144 46.8843C49.938 46.8843 49.402 46.9041 48.8064 46.9439C48.2109 46.9439 47.6351 46.9439 47.0793 46.9439H42.8509C42.3744 46.8247 42.0171 46.5071 41.7788 45.991C41.6994 45.8718 41.6399 45.7726 41.6002 45.6932C41.6002 45.5741 41.5605 45.3954 41.4811 45.1572C41.4414 44.919 41.362 44.6013 41.2429 44.2043C41.1634 43.7676 41.0443 43.172 40.8855 42.4176L40.4091 40.2141H36.2402C35.0888 40.2141 34.0168 40.2141 33.0242 40.2141C32.0713 40.2141 31.3566 40.2339 30.8802 40.2736H29.2126L28.8553 41.1074C28.6171 42.0206 28.3788 42.9338 28.1406 43.847C27.9421 44.7601 27.8031 45.316 27.7237 45.5145C27.6046 45.9513 27.4458 46.2689 27.2473 46.4674C27.0885 46.5865 26.8106 46.6858 26.4135 46.7652C26.0562 46.8049 25.7783 46.8247 25.5797 46.8247C25.1827 46.8247 24.8651 46.7056 24.6268 46.4674C24.3489 46.2292 24.21 45.9116 24.21 45.5145C24.21 45.3954 24.21 45.2763 24.21 45.1572C24.2497 44.9984 24.3291 44.7006 24.4482 44.2639C24.5276 43.9859 24.5871 43.7279 24.6268 43.4896C24.7063 43.2117 24.7658 43.033 24.8055 42.9536C24.8452 42.7948 24.8849 42.636 24.9246 42.4772C24.9643 42.2787 25.004 42.0801 25.0437 41.8816C25.1231 41.6831 25.2026 41.4052 25.282 41.0479C25.3614 40.6905 25.4408 40.353 25.5202 40.0354C25.6393 39.7178 25.7783 39.281 25.9371 38.7252C26.0959 38.1296 26.215 37.6135 26.2944 37.1767C26.5723 36.065 26.8304 35.0327 27.0686 34.0798C27.3466 33.127 27.6245 32.1344 27.9024 31.1021C28.0215 30.6653 28.1605 30.169 28.3193 29.6132C28.4781 29.0573 28.5972 28.6206 28.6766 28.303ZM31.1184 32.4718C31.039 32.7498 30.9397 33.1071 30.8206 33.5438C30.7015 33.9806 30.5824 34.4372 30.4633 34.9136C30.3442 35.3504 30.2449 35.7474 30.1655 36.1047C30.0861 36.4621 30.0266 36.7003 29.9868 36.8194L29.9273 36.879H34.8108C36.1608 36.879 37.332 36.879 38.3246 36.879C39.3172 36.879 39.8135 36.8591 39.8135 36.8194C39.8135 36.8194 39.7143 36.3033 39.5157 35.271C39.3569 34.2387 39.1187 32.9681 38.8011 31.4594C38.5231 29.911 38.2055 28.2434 37.8482 26.4567C37.4909 24.6304 37.1534 22.9628 36.8357 21.4541C36.5578 19.9056 36.2997 18.6153 36.0615 17.583C35.863 16.5507 35.7637 16.0345 35.7637 16.0345C35.724 16.233 35.6645 16.4316 35.5851 16.6301C35.466 16.9874 35.3667 17.3249 35.2873 17.6425C35.2079 17.9601 35.1086 18.3175 34.9895 18.7145C34.8704 19.1116 34.791 19.449 34.7513 19.727C34.4337 20.6004 34.1954 21.3151 34.0366 21.871C33.8778 22.3871 33.6793 23.1415 33.4411 24.1341C33.2823 24.6502 33.1234 25.1862 32.9646 25.7421C32.8058 26.2582 32.6867 26.6751 32.6073 26.9927C32.5279 27.2707 32.4088 27.6479 32.25 28.1243C32.1308 28.6007 32.0316 29.0573 31.9522 29.4941C31.7934 29.9308 31.6346 30.447 31.4757 31.0425C31.3566 31.6381 31.2375 32.1145 31.1184 32.4718Z" fill="#FFFFC3"/>
</g>
</g>
</svg>
